<svg width="512" height="512" viewBox="0 0 512 512" fill="none" xmlns="http://www.w3.org/2000/svg">
  <rect width="512" height="512" rx="104" fill="#101010"/>
  <g transform="translate(102 102) scale(4.219)" fill="#FFFFFF">
    <path d="M47.3157 72.1924H66.7338C70.0489 72.1924 72.7363 69.505 72.7363 66.1899V46.7717C72.7363 43.4567 70.0489 40.7692 66.7338 40.7692H47.3157C44.0006 40.7692 41.3132 43.4567 41.3132 46.7717V66.1899C41.3132 69.505 44.0006 72.1924 47.3157 72.1924Z"/>
    <path d="M57.03 0L57.024 0C48.3484 0 41.3154 7.03297 41.3154 15.7086V15.7146C41.3154 24.3902 48.3484 31.4231 57.024 31.4231H57.03C65.7056 31.4231 72.7386 24.3902 72.7386 15.7146V15.7086C72.7386 7.03297 65.7056 0 57.03 0Z"/>
    <path d="M15.7146 0L15.7086 0C7.03296 0 0 7.03297 0 15.7086L0 15.7146C0 24.3902 7.03296 31.4231 15.7086 31.4231H15.7146C24.3902 31.4231 31.4231 24.3902 31.4231 15.7146V15.7086C31.4231 7.03297 24.3902 0 15.7146 0Z"/>
    <path d="M15.7146 40.7666H15.7086C7.03297 40.7666 0 47.7996 0 56.4752L0 56.4812C0 65.1568 7.03297 72.1897 15.7086 72.1897H15.7146C24.3902 72.1897 31.4231 65.1568 31.4231 56.4812V56.4752C31.4231 47.7996 24.3902 40.7666 15.7146 40.7666Z"/>
  </g>
</svg>
