<svg width="24" height="24" viewBox="0 0 24 24" fill="none" xmlns="http://www.w3.org/2000/svg">
<g clip-path="url(#clip0_22095_32306)">
<rect width="23.9994" height="23.9994" fill="#101010"/>
<path d="M17.5101 14.957H6.4896C5.39725 14.957 4.51172 15.8454 4.51172 16.9413V16.9478C4.51172 18.0436 5.39725 18.932 6.4896 18.932H17.5101C18.6024 18.932 19.4879 18.0436 19.4879 16.9478V16.9413C19.4879 15.8454 18.6024 14.957 17.5101 14.957Z" fill="white"/>
<path d="M13.6904 5.06738H10.3099C9.21756 5.06738 8.33203 5.95576 8.33203 7.05163V7.05812C8.33203 8.15399 9.21756 9.04236 10.3099 9.04236H13.6904C14.7828 9.04236 15.6683 8.15399 15.6683 7.05812V7.05163C15.6683 5.95576 14.7828 5.06738 13.6904 5.06738Z" fill="white"/>
<path d="M15.4196 10.0156H8.58335C7.491 10.0156 6.60547 10.904 6.60547 11.9999V12.0064C6.60547 13.1022 7.491 13.9906 8.58335 13.9906H15.4196C16.512 13.9906 17.3975 13.1022 17.3975 12.0064V11.9999C17.3975 10.904 16.512 10.0156 15.4196 10.0156Z" fill="white"/>
</g>
<defs>
<clipPath id="clip0_22095_32306">
<rect width="24" height="24" fill="white"/>
</clipPath>
</defs>
</svg>
